<?xml version="1.0" encoding="iso-8859-1"?>
<!-- Generator: Adobe Illustrator 19.0.0, SVG Export Plug-In . SVG Version: 6.00 Build 0)  -->
<svg version="1.1" id="Layer_1" xmlns="http://www.w3.org/2000/svg" xmlns:xlink="http://www.w3.org/1999/xlink" x="0px" y="0px"
	 viewBox="0 0 504 504" style="enable-background:new 0 0 504 504;" xml:space="preserve">
<circle style="fill:#FCCC32;" cx="252" cy="251.95" r="248.8"/>
<path style="fill:#EFAE0C;" d="M428,75.95c96.8,97.6,96.8,254.4,0,352s-254.4,96.8-352,0"/>
<polygon style="fill:#F7EBF0;" points="478.4,421.55 252,490.35 25.6,421.55 87.2,147.95 252,112.75 416.8,147.95 "/>
<polyline style="fill:#FCDEEA;" points="87.2,147.95 252,112.75 416.8,147.95 478.4,421.55 252,490.35 "/>
<g>
	<polygon style="fill:#FFCFDE;" points="252,490.35 478.4,421.55 416.8,147.95 252,112.75 	"/>
	<polyline style="fill:#FFCFDE;" points="168.8,334.35 171.2,335.95 284,439.15 342.4,344.75 	"/>
</g>
<polyline style="fill:#F4C1D3;" points="252,490.35 478.4,421.55 416.8,147.95 "/>
<polygon style="fill:#E28FAF;" points="335.2,334.35 252,364.75 168.8,334.35 179.2,271.15 252,257.55 324.8,271.15 "/>
<polyline style="fill:#EFA3C2;" points="252,257.55 324.8,271.15 335.2,334.35 252,364.75 "/>
<polyline style="fill:#FFCFDE;" points="221.6,231.15 180,261.55 138.4,231.15 "/>
<polyline style="fill:#FCDEEA;" points="282.4,231.15 324,261.55 365.6,231.15 "/>
<polyline style="fill:#F7EBF0;" points="282.4,224.75 324,194.35 365.6,224.75 "/>
<polyline style="fill:#FFCFDE;" points="221.6,224.75 180,194.35 138.4,224.75 "/>
<path style="fill:#5E6664;" d="M197.6,224.75c0,8.8-8,15.2-17.6,15.2s-17.6-7.2-17.6-15.2c0-8.8,8-15.2,17.6-15.2
	S197.6,215.95,197.6,224.75z"/>
<path style="fill:#2F423F;" d="M192,213.55c7.2,6.4,6.4,16,0,21.6c-6.4,6.4-17.6,6.4-24.8,0"/>
<path style="fill:#5E6664;" d="M341.6,224.75c0,8.8-8,15.2-17.6,15.2s-17.6-7.2-17.6-15.2c0-8.8,8-15.2,17.6-15.2
	S341.6,215.95,341.6,224.75z"/>
<path style="fill:#2F423F;" d="M336,213.55c7.2,6.4,6.4,16,0,21.6c-6.4,6.4-17.6,6.4-24.8,0"/>
<polygon style="fill:#D1789C;" points="236,332.75 196,317.55 196,289.55 236,305.55 "/>
<polygon style="fill:#BC628B;" points="268,332.75 308,317.55 308,289.55 268,305.55 "/>
<polygon style="fill:#FFCFDE;" points="97.6,167.15 76,28.75 188.8,128.75 "/>
<polygon style="fill:#EFA3C2;" points="0,13.55 24.8,101.55 66.4,110.35 39.2,119.15 97.6,167.15 76,28.75 "/>
<polygon style="fill:#FCDEEA;" points="406.4,167.15 428,28.75 315.2,128.75 "/>
<polygon style="fill:#EFA3C2;" points="504,13.55 479.2,101.55 437.6,110.35 464.8,119.15 406.4,167.15 428,28.75 "/>
<circle style="fill:#BC628B;" cx="252" cy="403.95" r="26.4"/>
<path style="fill:#D1789C;" d="M252,377.55c14.4,0,26.4,12,26.4,26.4s-12,26.4-26.4,26.4"/>
<g>
</g>
<g>
</g>
<g>
</g>
<g>
</g>
<g>
</g>
<g>
</g>
<g>
</g>
<g>
</g>
<g>
</g>
<g>
</g>
<g>
</g>
<g>
</g>
<g>
</g>
<g>
</g>
<g>
</g>
</svg>
